<svg id="svg" xmlns="http://www.w3.org/2000/svg" xmlns:xlink="http://www.w3.org/1999/xlink" width="400" height="275" viewBox="0, 0, 400,275" version="1.1"><g id="svgg"><path id="path0" d="M120.287 1.625 C 119.923 2.519,98.852 55.619,73.464 119.625 L 27.304 236.000 13.652 236.000 L 0.000 236.000 0.000 254.250 L 0.000 272.500 70.750 272.500 L 141.500 272.500 141.500 254.250 L 141.500 236.000 131.250 236.000 C 125.612 236.000,120.999 235.831,120.997 235.625 C 120.991 234.697,140.761 178.603,141.035 178.772 C 141.205 178.876,154.485 200.565,170.547 226.968 C 186.608 253.371,199.863 274.973,200.000 274.973 C 200.137 274.973,213.391 253.371,229.451 226.968 C 245.512 200.566,258.790 178.879,258.959 178.775 C 259.231 178.607,279.010 234.702,279.003 235.625 C 279.001 235.831,274.387 236.000,268.750 236.000 L 258.500 236.000 258.500 254.250 L 258.500 272.500 329.250 272.500 L 400.000 272.500 400.000 254.250 L 400.000 236.000 386.346 236.000 L 372.691 236.000 328.747 124.875 C 304.577 63.756,283.587 10.656,282.102 6.875 C 280.617 3.094,279.236 -0.000,279.031 -0.000 C 278.827 -0.000,261.023 30.825,239.467 68.500 C 217.911 106.175,200.150 137.000,199.998 137.000 C 199.846 137.000,182.179 106.182,160.736 68.515 C 139.294 30.849,121.570 0.024,121.349 0.015 C 121.129 0.007,120.651 0.731,120.287 1.625 " stroke="none" fill="#000000" fill-rule="evenodd"></path></g></svg>